<svg width="493" height="412" viewBox="0 0 493 412" fill="none" xmlns="http://www.w3.org/2000/svg">
<g clip-path="url(#clip0_42_119)">
<path d="M400.447 389.199H101.192L101.327 357.44C101.668 277.078 165.749 210.86 246.022 209.493C246.889 209.478 247.758 209.471 248.628 209.471H248.628C266.691 209.457 284.61 212.68 301.539 218.986C358.338 240.16 396.462 293.955 398.998 354.571L400.447 389.199Z" fill="#1F1C2E"/>
<path d="M493 389.199H0V390.434H493V389.199Z" fill="#2F2E41"/>
<path d="M245.752 247.15L258.937 256.75L272.124 369.541H303.291L292.502 241.151L249.348 224.352L245.752 247.15Z" fill="#2F2E41"/>
<path d="M190.609 211.153C190.609 211.153 187.013 251.95 201.398 253.15C215.783 254.35 270.925 241.151 270.925 241.151L297.297 334.744L336.856 314.345C336.856 314.345 312.881 208.754 298.496 202.754C284.111 196.754 236.161 184.755 236.161 184.755L201.398 190.755L190.609 211.153Z" fill="#2F2E41"/>
<path d="M276.919 367.141C276.919 367.141 269.726 394.739 274.521 397.139C277.405 398.581 280.207 400.184 282.912 401.938V397.139C282.912 397.139 288.906 403.138 288.906 407.938C288.906 412.738 321.272 413.937 321.272 407.938C321.272 401.938 320.073 394.739 314.08 391.139C308.086 387.54 300.893 367.141 300.893 367.141H276.919Z" fill="#2F2E41"/>
<path d="M311.682 317.945L314.079 340.743L322.471 355.142L342.849 332.344L327.266 307.146L311.682 317.945Z" fill="#2F2E41"/>
<path d="M330.862 340.743C330.862 340.743 335.276 325.636 339.662 327.19C344.048 328.744 360.83 344.343 360.83 344.343L372.818 351.542C372.818 351.542 396.793 353.942 389.6 361.142C382.408 368.341 356.036 377.94 344.048 373.141C332.061 368.341 329.663 367.141 329.663 367.141L326.067 369.541L311.682 365.941L314.08 340.743C314.08 340.743 317.676 351.542 330.862 340.743Z" fill="#2F2E41"/>
<path d="M231.366 61.1651C246.593 61.1651 258.937 48.8091 258.937 33.5673C258.937 18.3254 246.593 5.96943 231.366 5.96943C216.139 5.96943 203.795 18.3254 203.795 33.5673C203.795 48.8091 216.139 61.1651 231.366 61.1651Z" fill="#9F616A"/>
<path d="M213.985 49.766C213.985 49.766 216.382 74.964 209.19 74.964C201.997 74.964 210.388 106.162 229.568 106.162C248.748 106.162 255.941 68.9645 255.941 68.9645C255.941 68.9645 242.754 64.1649 245.152 48.5661C247.549 32.9673 213.985 49.766 213.985 49.766Z" fill="#9F616A"/>
<path d="M212.074 73.0419L201.997 77.3638L174.648 88.9459C173.545 89.4129 172.623 90.2241 172.018 91.2586C171.414 92.2931 171.16 93.4954 171.293 94.6864L181.619 186.555C181.619 186.555 170.83 209.353 187.612 210.553L190.01 218.953L209.19 196.155L281.114 193.755L282.313 77.3638L249.404 64.3468C249.404 64.3468 244.928 89.1183 212.074 73.0419Z" fill="#3F3D56"/>
<path d="M178.622 92.3627L174.192 91.0958C173.695 90.9537 173.174 90.9188 172.663 90.9932C172.152 91.0676 171.662 91.2498 171.226 91.5276C170.791 91.8054 170.419 92.1726 170.135 92.6048C169.852 93.0371 169.663 93.5247 169.582 94.0353L157.827 167.846C156.91 173.312 157.788 178.928 160.329 183.852C163.961 190.736 171.504 196.979 187.013 189.555L197.802 111.561L178.622 92.3627Z" fill="#3F3D56"/>
<path d="M268.527 75.564L282.912 77.9638L322.471 133.159L326.067 142.759L348.843 135.559C348.843 135.559 347.644 146.358 359.632 145.159C359.632 145.159 345.247 184.755 315.278 172.756C285.31 160.757 275.72 124.76 275.72 124.76L268.527 75.564Z" fill="#3F3D56"/>
<path d="M285.31 99.5624L231.366 77.9635L228.969 85.1632L254.142 106.761L285.31 99.5624Z" fill="#CCCCCC"/>
<path d="M214.766 35.3266C215.785 35.0545 215.934 33.7012 215.968 32.6467C216.151 27.0002 219.548 21.2061 224.948 19.5623C227.02 18.9935 229.189 18.874 231.311 19.2118C234.34 19.6156 237.265 20.5922 239.929 22.0896C241.335 22.8811 242.715 23.8343 244.31 24.076C245.364 24.2357 249.925 25.5633 250.974 25.7502C253.281 26.1609 255.424 28.2266 257.638 27.4579C259.755 26.7225 260.224 23.9782 260.275 21.7353C260.392 16.6256 256.516 9.55354 253.103 5.75229C250.513 2.86767 246.613 1.53609 242.8 0.843691C238.347 0.127381 233.833 -0.147452 229.326 0.0231872C223.224 0.132111 216.954 0.603508 211.452 3.2461C205.95 5.8887 201.329 11.1481 201.065 17.2508C201.01 18.522 201.141 19.7985 201.034 21.0665C200.774 24.1596 199.133 26.9534 198.363 29.9603C197.813 32.1666 197.731 34.4638 198.122 36.7039C198.513 38.944 199.368 41.0771 200.634 42.9659C202.675 45.9737 210.841 48.7043 210.723 52.3389C212.199 50.8084 208.718 49.2678 210.194 47.7373C210.855 47.2319 211.323 46.5148 211.52 45.7056C211.717 44.8964 211.631 44.0441 211.275 43.291L209.708 37.1724C209.421 36.0521 209.139 34.8393 209.573 33.7673C211.253 29.6119 213.069 35.7804 214.766 35.3266Z" fill="#2F2E41"/>
<path d="M228.969 85.1631L206.193 173.956L294.9 205.154L346.446 161.957L378.812 64.765L326.067 103.162L228.969 85.1631Z" fill="#F2F2F2"/>
<path d="M233.318 94.7824L233.012 95.9424L319.321 118.741L319.627 117.581L233.318 94.7824Z" fill="#E6E6E6"/>
<path d="M230.92 100.782L230.614 101.942L316.923 124.74L317.229 123.58L230.92 100.782Z" fill="#E6E6E6"/>
<path d="M229.721 106.782L229.415 107.941L315.725 130.74L316.031 129.58L229.721 106.782Z" fill="#E6E6E6"/>
<path d="M228.522 112.781L228.217 113.941L314.526 136.739L314.832 135.579L228.522 112.781Z" fill="#E6E6E6"/>
<path d="M227.324 118.781L227.018 119.941L313.327 142.739L313.633 141.579L227.324 118.781Z" fill="#E6E6E6"/>
<path d="M226.125 124.78L225.819 125.94L312.129 148.738L312.434 147.578L226.125 124.78Z" fill="#E6E6E6"/>
<path d="M224.926 130.78L224.62 131.94L310.93 154.738L311.236 153.578L224.926 130.78Z" fill="#E6E6E6"/>
<path d="M223.728 136.779L223.422 137.939L309.731 160.737L310.037 159.577L223.728 136.779Z" fill="#E6E6E6"/>
<path d="M222.529 142.779L222.223 143.939L308.532 166.737L308.838 165.577L222.529 142.779Z" fill="#E6E6E6"/>
<path d="M192.418 150.479C192.418 150.479 219.379 134.359 231.366 145.159C243.354 155.958 196.603 171.556 196.603 171.556L192.418 150.479Z" fill="#9F616A"/>
<path d="M163.038 158.357L197.802 145.159C197.802 145.159 191.808 167.957 203.795 169.157L187.013 189.555C187.013 189.555 153.448 189.555 163.038 158.357Z" fill="#3F3D56"/>
<path d="M254.518 157.865L300.647 173.427L289.73 197.247L243.601 181.685L254.518 157.865Z" fill="#E6E6E6"/>
<path d="M336.256 107.362L371.02 80.9633L361.43 113.361L325.468 139.759L336.256 107.362Z" fill="#CCCCCC"/>
<path d="M353.875 124.882L319.111 151.279L319.836 152.236L354.6 125.839L353.875 124.882Z" fill="#E6E6E6"/>
<path d="M351.478 138.081L316.714 164.478L317.438 165.435L352.203 139.038L351.478 138.081Z" fill="#E6E6E6"/>
<path d="M356.035 146.358C356.035 146.358 386.004 128.36 366.824 121.16C347.644 113.961 347.644 141.559 347.644 141.559C347.644 141.559 346.446 147.558 356.035 146.358Z" fill="#9F616A"/>
<path opacity="0.1" d="M180.42 106.162L179.221 152.958L197.802 147.65L182.817 148.158L180.42 106.162Z" fill="black"/>
<path d="M49.6138 368.036C53.3611 381.901 66.1963 390.488 66.1963 390.488C66.1963 390.488 72.956 376.595 69.2088 362.73C65.4615 348.864 52.6263 340.277 52.6263 340.277C52.6263 340.277 45.8665 354.17 49.6138 368.036Z" fill="#8985A8"/>
<path d="M55.1202 365.056C65.4028 375.075 66.6587 390.477 66.6587 390.477C66.6587 390.477 51.2433 389.635 40.9607 379.615C30.6782 369.596 29.4222 354.194 29.4222 354.194C29.4222 354.194 44.8376 355.036 55.1202 365.056Z" fill="#3F3D56"/>
<path d="M404.766 234.176H386.255V252.704H404.766V234.176Z" fill="#F2F2F2"/>
<path d="M330.723 24.1846H312.213V42.7133H330.723V24.1846Z" fill="#F2F2F2"/>
<path d="M98.1064 211.941C103.218 211.941 107.362 207.794 107.362 202.677C107.362 197.561 103.218 193.413 98.1064 193.413C92.9948 193.413 88.8511 197.561 88.8511 202.677C88.8511 207.794 92.9948 211.941 98.1064 211.941Z" fill="#F2F2F2"/>
</g>
<defs>
<clipPath id="clip0_42_119">
<rect width="493" height="412" fill="white"/>
</clipPath>
</defs>
</svg>
